<?xml version="1.0" encoding="utf-8"?>
<!-- Generator: Adobe Illustrator 18.1.0, SVG Export Plug-In . SVG Version: 6.00 Build 0)  -->
<svg version="1.1" id="Calque_1" xmlns="http://www.w3.org/2000/svg" xmlns:xlink="http://www.w3.org/1999/xlink" x="0px" y="0px"
	 viewBox="0 0 7495 3711.8" enable-background="new 0 0 7495 3711.8" xml:space="preserve">
<g>
	<g>
		<path fill="#FFFFFF" d="M0,1822.4c29.2,13.4,60.6,20.2,101,20.2c112.4,0,186.5-83.2,186.5-323.6V409H94.3V114.6h845V409H752.7
			v1110c0,397.7-170.7,624.7-633.6,624.7c-42.7,0-83.2-11.4-116.8-24.8L0,1822.4z"/>
		<path fill="#FFFFFF" d="M1029,561.8h543.9v541.5c0,193.2,29.1,283.1,121.3,283.1c78.6,0,141.6-69.7,141.6-170.8V858.4h-148.3
			V561.8h582v824.7h110.1v298.9h-424.8l-60.6-141.6c-49.5,56.2-128,173-319,173c-339.3,0-451.6-175.2-451.6-548.3V858.4H1029V561.8z
			"/>
		<path fill="#FFFFFF" d="M3136.6,1685.3h-667.4v-294.4h94.4V860.6h-94.4V564h424.7l49.5,132.6c35.9-42.7,139.3-164,280.9-164
			c226.9,0,298.8,107.8,334.7,161.7c69.7-78.6,175.4-161.7,330.4-161.7c363.9,0,420.1,265.1,420.1,539.3V1382h110.1v303.3h-570.8
			v-550.6c0-107.8,20.2-278.6-85.3-278.6c-96.7,0-119.1,67.4-119.1,164v364h134.8v301.1h-581.9v-573.1c0-182-4.5-256.1-94.5-256.1
			c-71.8,0-101,42.7-101,134.8v400h134.8V1685.3z"/>
		<path fill="#FFFFFF" d="M4522.8,1685.3v-292.1h94.4V294.4h-94.4V0h543.9v649.4c49.4-58.5,184.2-105.6,294.3-105.6
			c341.6,0,523.5,287.6,516.8,588.7c-6.7,346-202.2,577.5-519,577.5c-170.8,0-233.7-47.2-296.6-101.1l-33.7,76.4H4522.8z
			 M5221.5,860.6c-87.6,0-168.4,110.1-159.5,287.6c0,152.8,76.3,269.6,161.8,269.6c94.4,0,159.6-110.1,159.6-280.8
			C5383.4,1002.2,5320.5,860.6,5221.5,860.6z"/>
		<path fill="#FFFFFF" d="M5951.8,1119c2.2-375.3,305.5-584.3,615.6-584.3c355,4.5,617.9,218,624.7,593.2
			c4.5,373-271.9,586.5-613.4,586.5C6257.3,1714.5,5947.3,1516.7,5951.8,1119z M6731.5,1128c0-168.6-58.4-298.9-164.1-301.1
			c-87.6,0-155,130.3-155,294.3c0,184.3,72,305.6,166.3,305.6C6675.3,1426.9,6731.5,1296.5,6731.5,1128z"/>
	</g>
	<g>
		<path fill="#FFFFFF" d="M3209.3,3287.4v-269.2h120v-910.9h-120v-267.1h772.1c343.7,0,507.2,128.4,507.2,354.1
			c0,173.8-47.6,258.7-202.9,320.7c149,41.5,273.3,151.3,273.3,352.2c0,291.8-163.6,420.2-563.1,420.2H3209.3z M3757.9,2113.5v310.7
			h126.4c109.6,0,140.6-60.1,140.6-159.4c0-95.4-58-151.3-136.6-151.3H3757.9z M4091.1,2840.3c0-105.7-60-182.3-173.9-182.3h-159.3
			v360.2h165.6C4010.5,3018.2,4091.1,2952.1,4091.1,2840.3z"/>
		<path fill="#FFFFFF" d="M4683.3,2339.3c82.8-49.9,260.8-147.1,451.3-147.1c248.4,0,561.2,93.2,561.2,426.5v403.7h124v265h-443
			l-49.8-93.3c-76.5,105.8-204.9,132.6-279.4,132.6c-196.7,0-407.9-105.7-407.9-345.6c0-234.1,196.8-381.2,430.8-381.2
			c122,0,194.5,60.2,204.8,72.6v-72.6c0-93-84.8-115.8-196.7-115.8c-122.1,0-229.8,51.8-308.4,95.3L4683.3,2339.3z M5275.3,2989.3
			v-78.7c-6.2-10.3-35.2-60-122.2-60c-82.6,0-120,45.5-120,109.7c0,57.9,47.5,97.3,109.8,97.3
			C5205,3057.5,5256.6,3020.3,5275.3,2989.3z"/>
		<path fill="#FFFFFF" d="M6003.7,3299.9c47.6,41.4,202.8,132.3,360.3,132.3c186.2,0,240.1-107.6,240.1-194.5v-70.5
			c-29.1,37.5-109.7,114.1-242.3,114.1c-356.1,0-496.9-256.8-496.9-517.6c0-321,178.2-532.2,519.7-532.2
			c91.1,0,177.9,43.6,219.4,84.9l41.3-64h492.7v271.1H7014v619.1c0,343.5-211.1,567.1-646.1,569.2c-227.6-2.1-395.3-109.7-474-182.2
			L6003.7,3299.9z M6454.9,3014c80.8,0,155.4-101.4,147-264.9c0-140.8-70.4-248.4-149-248.4c-86.9,0-146.9,101.4-146.9,258.7
			C6305.9,2883.6,6363.9,3014,6454.9,3014z"/>
	</g>
	<g>
		<path fill="#FFFFFF" d="M7344.9,2795.6c83.6,0,150.1,64.8,150.1,147.5c0,82.6-66.5,148.3-150.9,148.3c-84.5,0-152-65.7-152-148.3
			c0-82.6,67.5-147.5,152-147.5H7344.9z M7343.1,2825.3c-63.8,0-113.2,53.1-113.2,117.8c0,65.6,49.5,117.8,115,117.8
			c63.8,0.8,112.4-52.2,112.4-116.8c0-65.7-48.6-118.7-113.2-118.7H7343.1z M7320.7,3019.5h-34.1v-147.5c13.5-1.8,32.3-4.4,56.5-4.4
			c27.9,0,40.5,4.4,50.4,11.6c8.9,6.3,15.1,17.2,15.1,31.6c0,17.9-13.5,29.6-30.5,34.9v1.9c14.4,4.4,21.6,16.2,26.1,36
			c4.4,22.4,8,30.5,10.8,35.9h-35.9c-4.5-5.4-7.3-18-11.7-35.9c-2.7-15.4-11.7-22.5-30.6-22.5h-16.1V3019.5z M7321.5,2936.8h16.2
			c18.8,0,34.1-6.2,34.1-21.6c0-13.5-9.9-22.5-31.4-22.5c-9.1,0-15.4,1-18.9,1.9V2936.8z"/>
	</g>
</g>
</svg>
