<?xml version="1.0" encoding="utf-8"?>
<!-- Generator: Adobe Illustrator 18.1.0, SVG Export Plug-In . SVG Version: 6.00 Build 0)  -->
<svg version="1.1"
	 id="Layer_1" xmlns:cc="http://creativecommons.org/ns#" xmlns:rdf="http://www.w3.org/1999/02/22-rdf-syntax-ns#" xmlns:dc="http://purl.org/dc/elements/1.1/" xmlns:svg="http://www.w3.org/2000/svg" xmlns:sodipodi="http://sodipodi.sourceforge.net/DTD/sodipodi-0.dtd" xmlns:inkscape="http://www.inkscape.org/namespaces/inkscape"
	 xmlns="http://www.w3.org/2000/svg" xmlns:xlink="http://www.w3.org/1999/xlink" x="0px" y="0px" viewBox="0 0 66 66"
	 enable-background="new 0 0 66 66" xml:space="preserve">
<g>
	<path fill="#31419F" d="M38.6,24c-0.7-0.4-2.3-1.2-4.5-1.2c-0.1,0-0.2,0-0.3,0l0,0.7v-0.7c-0.4,0-1.3,0-2.4,0.4
		c-1.1,0.3-2.4,0.9-3.6,2l0,0c-1.4,1.2-2.1,2.7-2.6,4.1c-0.4,1.4-0.5,2.6-0.5,3.5c0,0.4,0,0.7,0,0.9l0,0l0,0c0,0.4,0.1,1.5,0.6,2.8
		c0.5,1.3,1.3,2.8,2.8,4.1l0,0c2.1,1.7,4.4,1.9,5.3,2l0,0l0,0c0.3,0,0.5,0,0.8,0c2.4,0,4.2-0.9,5-1.3L38.6,40
		c-0.7,0.4-2.3,1.1-4.3,1.1c-0.2,0-0.5,0-0.7,0l0,0c-0.8-0.1-2.7-0.2-4.5-1.7l0,0c-1.3-1-2-2.3-2.4-3.4c-0.4-1.1-0.5-2.1-0.5-2.5
		l-0.7,0.1l0.7,0c0-0.2,0-0.5,0-0.8c0-0.8,0.1-1.9,0.5-3.1c0.4-1.2,1-2.4,2.2-3.5l0,0c1-0.9,2.1-1.4,3.1-1.7c0.9-0.3,1.7-0.3,2-0.3
		h0l0,0c0.1,0,0.2,0,0.3,0c1.8,0,3.2,0.7,3.8,1L38.6,24L38.6,24z"/>
	<polygon fill="#31419F" points="22.9,31.3 22.6,32.4 34.1,32.4 34.4,31.3 	"/>
	<polygon fill="#31419F" points="22.8,33.2 22.6,34.4 33.7,34.4 34,33.2 	"/>
</g>
<circle fill="none" stroke="#31419F" stroke-width="1.2277" stroke-miterlimit="10" cx="33.2" cy="32.7" r="21.9"/>
</svg>
