<?xml version="1.0" encoding="utf-8"?>
<!-- Generator: Adobe Illustrator 18.1.0, SVG Export Plug-In . SVG Version: 6.00 Build 0)  -->
<svg version="1.1"
	 id="Layer_1" xmlns:cc="http://creativecommons.org/ns#" xmlns:rdf="http://www.w3.org/1999/02/22-rdf-syntax-ns#" xmlns:dc="http://purl.org/dc/elements/1.1/" xmlns:svg="http://www.w3.org/2000/svg" xmlns:sodipodi="http://sodipodi.sourceforge.net/DTD/sodipodi-0.dtd" xmlns:inkscape="http://www.inkscape.org/namespaces/inkscape"
	 xmlns="http://www.w3.org/2000/svg" xmlns:xlink="http://www.w3.org/1999/xlink" x="0px" y="0px" viewBox="0 0 66 66"
	 enable-background="new 0 0 66 66" xml:space="preserve">
<g>
	<path fill="#31419F" d="M32.3,44.8c0.2,0.2,0.4,0.3,0.7,0.3c0.3,0,0.5-0.1,0.7-0.3c0.3-0.3,7.5-8.6,11.4-17.6
		c0.9-1.8,1.3-3.7,1.3-5.7C46.4,14,40.4,8,33,8c-7.4,0-13.5,6-13.5,13.4c0,2,0.4,3.9,1.3,5.7C24.7,36.2,32,44.4,32.3,44.8z M33,9.8
		c6.4,0,11.7,5.2,11.7,11.6c0,1.7-0.4,3.4-1.2,5c-3.2,7.3-8.6,14.2-10.5,16.4c-1.9-2.3-7.4-9.2-10.6-16.5c-0.7-1.5-1.1-3.2-1.1-5
		C21.3,15,26.5,9.8,33,9.8z"/>
	<path fill="#31419F" d="M33,27.6c3.5,0,6.4-2.9,6.4-6.4c0-3.5-2.9-6.4-6.4-6.4c-3.5,0-6.4,2.9-6.4,6.4C26.6,24.8,29.4,27.6,33,27.6
		z M33,16.6c2.5,0,4.6,2.1,4.6,4.6s-2.1,4.6-4.6,4.6s-4.6-2.1-4.6-4.6S30.4,16.6,33,16.6z"/>
	<path fill="#31419F" d="M55.9,54.5l-5.3-20.3c-0.1-0.3-0.3-0.5-0.5-0.6l-4.4-1.8L45,33.5l4,1.6l4.7,18l-8.8-4.4
		c-0.2-0.1-0.5-0.1-0.8,0L33,53.8l-11.1-5.1c-0.2-0.1-0.5-0.1-0.8,0l-8.8,4.4l4.7-18l4-1.6l-0.7-1.6l-4.4,1.8
		c-0.3,0.1-0.5,0.3-0.5,0.6l-5.3,20.3c-0.1,0.3,0,0.7,0.3,0.9c0.3,0.2,0.6,0.3,1,0.1l10.2-5.1l11.1,5.1c0.2,0.1,0.5,0.1,0.7,0
		l11.1-5.1l10.2,5.1c0.1,0.1,0.3,0.1,0.4,0.1c0.2,0,0.4-0.1,0.6-0.2C55.9,55.2,56,54.9,55.9,54.5z"/>
</g>
</svg>
