<?xml version="1.0" encoding="utf-8"?>
<!-- Generator: Adobe Illustrator 18.1.0, SVG Export Plug-In . SVG Version: 6.00 Build 0)  -->
<svg version="1.1" id="Layer_1" xmlns="http://www.w3.org/2000/svg" xmlns:xlink="http://www.w3.org/1999/xlink" x="0px" y="0px"
	 viewBox="0 0 107 53.8" enable-background="new 0 0 107 53.8" xml:space="preserve">
<g>
	<g>
		<path fill="#FFFFFF" d="M1.8,26.6c0.4,0.2,0.8,0.3,1.4,0.3c1.6,0,2.6-1.2,2.6-4.5V7H3.1V3h11.7V7h-2.6v15.4c0,5.5-2.4,8.6-8.8,8.6
			c-0.6,0-1.2-0.2-1.6-0.3L1.8,26.6z"/>
		<path fill="#FFFFFF" d="M16,9.1h7.5v7.5c0,2.7,0.4,3.9,1.7,3.9c1.1,0,2-1,2-2.4v-4.9h-2.1V9.1h8.1v11.4h1.5v4.1h-5.9l-0.8-2
			c-0.7,0.8-1.8,2.4-4.4,2.4c-4.7,0-6.2-2.4-6.2-7.6v-4.3H16V9.1z"/>
		<path fill="#FFFFFF" d="M45.2,24.7h-9.2v-4.1h1.3v-7.3h-1.3V9.2h5.9l0.7,1.8c0.5-0.6,1.9-2.3,3.9-2.3c3.1,0,4.1,1.5,4.6,2.2
			c1-1.1,2.4-2.2,4.6-2.2c5,0,5.8,3.7,5.8,7.5v4.3h1.5v4.2H55v-7.6c0-1.5,0.3-3.9-1.2-3.9c-1.3,0-1.6,0.9-1.6,2.3v5H54v4.2H46v-7.9
			c0-2.5-0.1-3.5-1.3-3.5c-1,0-1.4,0.6-1.4,1.9v5.5h1.9V24.7z"/>
		<path fill="#FFFFFF" d="M64.3,24.7v-4h1.3V5.4h-1.3V1.4h7.5v9c0.7-0.8,2.5-1.5,4.1-1.5c4.7,0,7.2,4,7.2,8.1c-0.1,4.8-2.8,8-7.2,8
			c-2.4,0-3.2-0.7-4.1-1.4l-0.5,1.1H64.3z M74,13.3c-1.2,0-2.3,1.5-2.2,4c0,2.1,1.1,3.7,2.2,3.7c1.3,0,2.2-1.5,2.2-3.9
			C76.2,15.2,75.4,13.3,74,13.3z"/>
		<path fill="#FFFFFF" d="M84.1,16.9c0-5.2,4.2-8.1,8.5-8.1c4.9,0.1,8.6,3,8.6,8.2c0.1,5.2-3.8,8.1-8.5,8.1
			C88.3,25.1,84,22.4,84.1,16.9z M94.9,17c0-2.3-0.8-4.1-2.3-4.2c-1.2,0-2.1,1.8-2.1,4.1c0,2.6,1,4.2,2.3,4.2
			C94.1,21.1,94.9,19.3,94.9,17z"/>
	</g>
	<g>
		<path fill="#FFFFFF" d="M46.2,46.9v-3.7h1.7V30.5h-1.7v-3.7h10.7c4.8,0,7,1.8,7,4.9c0,2.4-0.7,3.6-2.8,4.4
			c2.1,0.6,3.8,2.1,3.8,4.9c0,4-2.3,5.8-7.8,5.8H46.2z M53.8,30.6v4.3h1.7c1.5,0,1.9-0.8,1.9-2.2c0-1.3-0.8-2.1-1.9-2.1H53.8z
			 M58.4,40.7c0-1.5-0.8-2.5-2.4-2.5h-2.2v5H56C57.2,43.1,58.4,42.2,58.4,40.7z"/>
		<path fill="#FFFFFF" d="M66.6,33.7c1.1-0.7,3.6-2,6.2-2c3.4,0,7.8,1.3,7.8,5.9v5.6h1.7v3.7h-6.1l-0.7-1.3
			c-1.1,1.5-2.8,1.8-3.9,1.8c-2.7,0-5.6-1.5-5.6-4.8c0-3.2,2.7-5.3,6-5.3c1.7,0,2.7,0.8,2.8,1v-1c0-1.3-1.2-1.6-2.7-1.6
			c-1.7,0-3.2,0.7-4.3,1.3L66.6,33.7z M74.7,42.7v-1.1c-0.1-0.1-0.5-0.8-1.7-0.8c-1.1,0-1.7,0.6-1.7,1.5c0,0.8,0.7,1.3,1.5,1.3
			C73.8,43.7,74.5,43.2,74.7,42.7z"/>
		<path fill="#FFFFFF" d="M84.8,47c0.7,0.6,2.8,1.8,5,1.8c2.6,0,3.3-1.5,3.3-2.7v-1c-0.4,0.5-1.5,1.6-3.4,1.6
			c-4.9,0-6.9-3.6-6.9-7.2c0-4.4,2.5-7.4,7.2-7.4c1.3,0,2.5,0.6,3,1.2l0.6-0.9h6.8v3.8h-1.7v8.6c0,4.8-2.9,7.8-8.9,7.9
			c-3.2,0-5.5-1.5-6.6-2.5L84.8,47z M91.1,43.1c1.1,0,2.1-1.4,2-3.7c0-1.9-1-3.4-2.1-3.4c-1.2,0-2,1.4-2,3.6
			C89,41.3,89.8,43.1,91.1,43.1z"/>
	</g>
	<g>
		<path fill="#FFFFFF" d="M103.4,40.1c1.2,0,2.1,0.9,2.1,2c0,1.1-0.9,2.1-2.1,2.1c-1.2,0-2.1-0.9-2.1-2.1
			C101.3,40.9,102.2,40.1,103.4,40.1L103.4,40.1z M103.4,40.5c-0.9,0-1.6,0.7-1.6,1.6c0,0.9,0.7,1.6,1.6,1.6c0.9,0,1.6-0.7,1.6-1.6
			C104.9,41.2,104.3,40.5,103.4,40.5L103.4,40.5z M103.1,43.1h-0.5v-2c0.2,0,0.4-0.1,0.8-0.1c0.4,0,0.6,0.1,0.7,0.2
			c0.1,0.1,0.2,0.2,0.2,0.4c0,0.2-0.2,0.4-0.4,0.5v0c0.2,0.1,0.3,0.2,0.4,0.5c0.1,0.3,0.1,0.4,0.1,0.5h-0.5
			c-0.1-0.1-0.1-0.2-0.2-0.5c0-0.2-0.2-0.3-0.4-0.3h-0.2V43.1z M103.1,42h0.2c0.3,0,0.5-0.1,0.5-0.3c0-0.2-0.1-0.3-0.4-0.3
			c-0.1,0-0.2,0-0.3,0V42z"/>
	</g>
</g>
</svg>
