<?xml version="1.0" encoding="utf-8"?>
<!-- Generator: Adobe Illustrator 18.1.0, SVG Export Plug-In . SVG Version: 6.00 Build 0)  -->
<svg version="1.1"
	 id="Layer_1" xmlns:cc="http://creativecommons.org/ns#" xmlns:rdf="http://www.w3.org/1999/02/22-rdf-syntax-ns#" xmlns:dc="http://purl.org/dc/elements/1.1/" xmlns:svg="http://www.w3.org/2000/svg" xmlns:sodipodi="http://sodipodi.sourceforge.net/DTD/sodipodi-0.dtd" xmlns:inkscape="http://www.inkscape.org/namespaces/inkscape"
	 xmlns="http://www.w3.org/2000/svg" xmlns:xlink="http://www.w3.org/1999/xlink" x="0px" y="0px" viewBox="0 0 66 66"
	 enable-background="new 0 0 66 66" xml:space="preserve">
<g transform="translate(0,-952.36218)">
	<path fill="#31419F" stroke="#31419F" stroke-width="0.5" stroke-miterlimit="10" d="M33,962.7c-7,2.8-14.1,5.6-21.2,8.4
		c-0.3,0-0.5,0.3-0.5,0.5V998c0,0.3,0.2,0.5,0.5,0.5l20.9,9.4c0,0,0,0,0.1,0h0c0.2,0.1,0.4,0.1,0.5,0l21-9.4
		c0.2-0.1,0.4-0.3,0.4-0.5v-26.4c0-0.2-0.1-0.4-0.3-0.5c-2.7-1.1-5.5-2.2-7.8-3.1c0,0-0.1,0-0.1,0l-5.3-2.1
		C38.4,964.9,35.6,963.7,33,962.7z M33,963.7l7.7,3.1l5.3,2.1c0,0,0.1,0,0.1,0c0,0,0,0,0,0h0l6.5,2.6l-9.1,3.6l-19.7-7.9L33,963.7z
		 M22.4,968l19.7,7.9l-9.1,3.6l-19.7-7.9L22.4,968z M12.4,972.4l20.1,8v26.3l-20.1-9V972.4z M53.6,972.4v25.3l-9.5,4.3v-7.6
		c0-0.3-0.3-0.6-0.6-0.5c-0.3,0-0.5,0.3-0.5,0.5v7.9c0,0.1,0,0.1,0,0.2l-9.5,4.3v-26.3l9.5-3.8v7.7c0,0.3,0.2,0.5,0.5,0.5
		s0.5-0.3,0.5-0.5v-7.9c0-0.1,0-0.1,0-0.2L53.6,972.4z"/>
</g>
</svg>
