<?xml version="1.0" encoding="utf-8"?>
<!-- Generator: Adobe Illustrator 18.1.0, SVG Export Plug-In . SVG Version: 6.00 Build 0)  -->
<svg version="1.1" id="Calque_1" xmlns="http://www.w3.org/2000/svg" xmlns:xlink="http://www.w3.org/1999/xlink" x="0px" y="0px"
	 viewBox="0 0 453.2 449.8" enable-background="new 0 0 453.2 449.8" xml:space="preserve">
<g>
	<g>
		<path fill="#283782" d="M-3288.2-3680.6c29.2,13.4,60.6,20.2,101,20.2c112.4,0,186.5-83.2,186.5-323.6v-1110h-193.2v-294.4h845
			v294.4h-186.5v1110c0,397.7-170.7,624.7-633.6,624.7c-42.7,0-83.2-11.4-116.8-24.8L-3288.2-3680.6z"/>
		<path fill="#283782" d="M-2259.2-4941.2h543.9v541.5c0,193.2,29.1,283.1,121.2,283.1c78.6,0,141.6-69.7,141.6-170.8v-357.3h-148.3
			v-296.6h582v824.7h110.1v298.9h-424.8l-60.6-141.6c-49.5,56.2-128,173-319,173c-339.3,0-451.6-175.2-451.6-548.3v-310.1h-94.4
			V-4941.2z"/>
		<path fill="#283782" d="M-151.6-3817.7H-819V-4112h94.4v-530.4H-819V-4939h424.7l49.5,132.6c35.9-42.7,139.3-164,280.9-164
			c226.9,0,298.8,107.8,334.7,161.7c69.7-78.6,175.4-161.7,330.4-161.7c363.9,0,420.1,265.1,420.1,539.3v310.1h110.1v303.3H560.6
			v-550.6c0-107.8,20.2-278.6-85.3-278.6c-96.7,0-119.1,67.4-119.1,164v364H491v301.1H-90.9v-573.1c0-182-4.5-256.1-94.5-256.1
			c-71.8,0-101,42.7-101,134.8v400h134.8V-3817.7z"/>
		<path fill="#283782" d="M1234.5-3817.7v-292.1h94.4v-1098.8h-94.4V-5503h543.9v649.4c49.4-58.5,184.2-105.6,294.3-105.6
			c341.6,0,523.5,287.6,516.8,588.7c-6.7,346-202.2,577.5-519,577.5c-170.8,0-233.7-47.2-296.6-101.1l-33.7,76.4H1234.5z
			 M1933.3-4642.4c-87.6,0-168.4,110.1-159.5,287.6c0,152.8,76.3,269.6,161.8,269.6c94.4,0,159.6-110.1,159.6-280.8
			C2095.2-4500.8,2032.2-4642.4,1933.3-4642.4z"/>
		<path fill="#283782" d="M2663.5-4384c2.2-375.3,305.5-584.3,615.6-584.3c355,4.5,617.9,218,624.7,593.2
			c4.5,373-271.9,586.5-613.4,586.5C2969.1-3788.5,2659-3986.2,2663.5-4384z M3443.3-4375c0-168.6-58.4-298.9-164.1-301.1
			c-87.6,0-155,130.3-155,294.3c0,184.3,72,305.6,166.3,305.6C3387.1-4076.1,3443.3-4206.4,3443.3-4375z"/>
	</g>
	<g>
		<path fill="#283782" d="M-78.9-2215.6v-269.2h120v-910.9h-120v-267.1h772.1c343.7,0,507.2,128.4,507.2,354.1
			c0,173.8-47.6,258.7-202.9,320.7c149,41.5,273.3,151.3,273.3,352.2c0,291.8-163.6,420.2-563.1,420.2H-78.9z M469.7-3389.5v310.7
			h126.4c109.6,0,140.6-60.1,140.6-159.4c0-95.4-58-151.3-136.6-151.3H469.7z M802.9-2662.7c0-105.7-60-182.3-173.9-182.3H469.7
			v360.2h165.6C722.3-2484.8,802.9-2550.9,802.9-2662.7z"/>
		<path fill="#283782" d="M1395.1-3163.7c82.8-49.9,260.8-147.1,451.3-147.1c248.4,0,561.2,93.2,561.2,426.5v403.7h124v265h-443
			l-49.8-93.3c-76.5,105.8-204.9,132.6-279.4,132.6c-196.7,0-407.9-105.7-407.9-345.6c0-234.1,196.8-381.2,430.8-381.2
			c122,0,194.5,60.2,204.8,72.6v-72.6c0-93-84.8-115.8-196.7-115.8c-122.1,0-229.8,51.8-308.4,95.3L1395.1-3163.7z M1987.1-2513.7
			v-78.7c-6.2-10.3-35.2-60-122.2-60c-82.6,0-120,45.5-120,109.7c0,57.9,47.5,97.3,109.8,97.3
			C1916.8-2445.5,1968.4-2482.7,1987.1-2513.7z"/>
		<path fill="#283782" d="M2715.4-2203.1c47.6,41.4,202.8,132.3,360.3,132.3c186.2,0,240.1-107.6,240.1-194.5v-70.5
			c-29.1,37.5-109.7,114.1-242.3,114.1c-356.1,0-496.9-256.8-496.9-517.6c0-321,178.2-532.2,519.7-532.2
			c91.1,0,177.9,43.6,219.4,84.9l41.3-64h492.7v271.1h-124.1v619.1c0,343.5-211.1,567.1-646.1,569.2
			c-227.6-2.1-395.3-109.7-474-182.2L2715.4-2203.1z M3166.7-2488.9c80.8,0,155.4-101.4,147-264.9c0-140.8-70.4-248.4-149-248.4
			c-86.9,0-146.9,101.4-146.9,258.7C3017.7-2619.4,3075.7-2488.9,3166.7-2488.9z"/>
	</g>
	<g>
		<path fill="#283782" d="M4056.7-2707.3c83.6,0,150.1,64.8,150.1,147.5c0,82.6-66.5,148.3-150.9,148.3c-84.5,0-152-65.7-152-148.3
			c0-82.6,67.5-147.5,152-147.5H4056.7z M4054.9-2677.7c-63.8,0-113.2,53.1-113.2,117.8c0,65.6,49.5,117.8,115,117.8
			c63.8,0.8,112.4-52.2,112.4-116.8c0-65.7-48.6-118.7-113.2-118.7H4054.9z M4032.5-2483.5h-34.1v-147.5c13.5-1.8,32.3-4.4,56.5-4.4
			c27.9,0,40.5,4.4,50.4,11.6c8.9,6.3,15.1,17.2,15.1,31.6c0,17.9-13.5,29.6-30.5,34.9v1.9c14.4,4.4,21.6,16.2,26.1,36
			c4.4,22.4,8,30.5,10.8,35.9h-35.9c-4.5-5.4-7.3-18-11.7-35.9c-2.7-15.4-11.7-22.5-30.6-22.5h-16.1V-2483.5z M4033.3-2566.2h16.2
			c18.8,0,34.1-6.2,34.1-21.6c0-13.5-9.9-22.5-31.4-22.5c-9.1,0-15.4,1-18.9,1.9V-2566.2z"/>
	</g>
</g>
<circle fill="#283782" cx="226.6" cy="224.9" r="217.8"/>
<path fill="#FFFFFF" d="M322.6,218.9h-90v-90c0-3.3-2.7-6-6-6c-3.3,0-6,2.7-6,6v90h-90c-3.3,0-6,2.7-6,6c0,3.3,2.7,6,6,6h90v90
	c0,3.3,2.7,6,6,6c3.3,0,6-2.7,6-6v-90h90c3.3,0,6-2.7,6-6C328.6,221.6,325.9,218.9,322.6,218.9z"/>
</svg>
